<svg xmlns="http://www.w3.org/2000/svg" viewBox="0 0 32 32" fill="none">
  <circle cx="16" cy="16" r="16" fill="#f9e8e8"/>
  <path d="M16 4C12.5 4 9.5 6.5 9.5 6.5C7 8.5 5.5 11.5 5.5 14.5C5.5 19.5 9 23 12.5 24C12.5 24 13.5 28 16 28C18.5 28 19.5 24 19.5 24C23 23 26.5 19.5 26.5 14.5C26.5 11.5 25 8.5 22.5 6.5C22.5 6.5 19.5 4 16 4Z" fill="#c4768a"/>
  <circle cx="12" cy="12.5" r="1.8" fill="white" fill-opacity="0.7"/>
  <circle cx="20" cy="12.5" r="1.8" fill="white" fill-opacity="0.7"/>
  <path d="M13 18C14.2 19.2 17.8 19.2 19 18" stroke="white" stroke-width="1.5" stroke-linecap="round"/>
</svg>
